<?xml version="1.0" standalone="no"?>
<!DOCTYPE svg PUBLIC "-//W3C//DTD SVG 20010904//EN"
 "http://www.w3.org/TR/2001/REC-SVG-20010904/DTD/svg10.dtd">
<svg version="1.0" xmlns="http://www.w3.org/2000/svg"
 width="512.000000pt" height="512.000000pt" viewBox="0 0 512.000000 512.000000"
 preserveAspectRatio="xMidYMid meet">
<metadata>
Created by potrace 1.13, written by Peter Selinger 2001-2015
</metadata>
<g transform="translate(0.000000,512.000000) scale(0.100000,-0.100000)"
fill="#000000" stroke="none">
<path d="M2031 3329 c-206 -26 -393 -132 -524 -296 -30 -37 -101 -135 -158
-218 -132 -191 -289 -353 -394 -407 -120 -62 -203 -82 -340 -82 -114 -1 -123
1 -186 30 -127 60 -193 161 -193 294 0 118 47 202 148 261 l51 31 -55 -7
c-108 -13 -201 -73 -268 -173 -72 -108 -95 -188 -96 -327 -1 -348 240 -552
744 -631 162 -25 602 -26 779 -1 431 61 772 195 967 379 l54 51 54 -51 c195
-184 536 -318 967 -379 177 -25 617 -24 779 1 341 53 550 158 662 331 58 88
82 179 82 300 -1 139 -24 219 -96 327 -67 100 -160 160 -268 173 l-55 7 51
-31 c101 -59 148 -143 148 -261 0 -133 -66 -234 -193 -294 -63 -29 -72 -31
-186 -30 -137 0 -220 20 -340 82 -105 54 -262 216 -394 407 -193 278 -273 360
-426 436 -254 125 -556 115 -737 -24 l-48 -37 -47 37 c-125 95 -280 128 -482
102z"/>
</g>
</svg>
